# xmcd CD database file
#
# Track frame offsets:
#	150
#	32918
#	56002
#	78697
#	98833
#	128688
#	149778
#	173482
#	195257
#
# Disc length: 2854 seconds
#
# Revision: 0
# Processed by: cddbd v1.5.2PL0 Copyright (c) Steve Scherf et al.
# Submitted via: CDex 1.51
#
DISCID=780b2409
DTITLE=David Blenkhorn's Australian Allstars - Live At Jazz Ascona 2005
DYEAR=2005
DGENRE=Jazz
TTITLE0=Some Of These Days
TTITLE1=Peanut Vendor
TTITLE2=Don't Be That Way
TTITLE3=Nuages
TTITLE4=Sweet Sue
TTITLE5=Humoresque
TTITLE6=This Heart Of Mine
TTITLE7='S Wonderful
TTITLE8=Jubilee
EXTD=YEAR: 2005
EXTT0=
EXTT1=
EXTT2=
EXTT3=
EXTT4=
EXTT5=
EXTT6=
EXTT7=
EXTT8=
PLAYORDER=
